<svg xmlns="http://www.w3.org/2000/svg" xmlns:xlink="http://www.w3.org/1999/xlink" width="139" height="50" viewBox="0 0 139 50">
    <defs>
        <path id="a" d="M0 .05h37.238v49.34H0z"/>
    </defs>
    <g fill="none" fill-rule="evenodd">
        <g transform="translate(0 .56)">
            <mask id="b" fill="#fff">
                <use xlink:href="#a"/>
            </mask>
            <path fill="#E81538" d="M31.359 33.953L21.82 43.49a4.507 4.507 0 0 1-3.683 1.296 4.498 4.498 0 0 1-2.703-1.296l-9.538-9.538a4.503 4.503 0 0 1-1.323-3.192 4.5 4.5 0 0 1 1.323-3.194l9.538-9.539a4.506 4.506 0 0 1 3.576-1.306 4.495 4.495 0 0 1 2.81 1.306l9.539 9.539a4.502 4.502 0 0 1 1.322 3.19 4.5 4.5 0 0 1-1.322 3.196m5.281-6.532l.009-.004-.047-.127c-.035-.093-.065-.185-.103-.277l-5.785-15.572-3.482 4.987L18.632.05S5.07 20.222 1.628 25.365h.008c-2.528 3.777-2.13 8.93 1.205 12.265l8.915 8.914c3.794 3.795 9.947 3.795 13.74 0l8.915-8.914c2.762-2.763 3.489-6.767 2.228-10.21" mask="url(#b)"/>
        </g>
        <path fill="#E81538" d="M18.627 22.087a2.806 2.806 0 1 0 0 5.611 2.806 2.806 0 0 0 0-5.611M18.627 34.94a2.806 2.806 0 1 0 0 5.611 2.806 2.806 0 0 0 0-5.61M25.054 28.513a2.806 2.806 0 1 0 0 5.611 2.806 2.806 0 0 0 0-5.61M9.395 31.319a2.806 2.806 0 1 0 5.61 0 2.806 2.806 0 0 0-5.61 0z"/>
        <path fill="#FFF" d="M57.576 26.143c-.63 0-1.247.112-1.848.323-.6.21-1.127.54-1.607.991-.481.451-.857 1.022-1.127 1.706-.285.69-.42 1.494-.42 2.426 0 .954.135 1.765.435 2.441.286.676.661 1.232 1.126 1.668.466.435.993.766 1.593.976.601.21 1.217.316 1.848.316a5.16 5.16 0 0 0 1.953-.375 4.855 4.855 0 0 0 1.608-1.097 5.159 5.159 0 0 0 1.081-1.705c.271-.661.407-1.42.407-2.262 0-.826-.136-1.57-.407-2.246a4.972 4.972 0 0 0-1.081-1.712 5.029 5.029 0 0 0-3.56-1.45zm-4.928-2.502c1.412-1.562 3.366-2.344 5.875-2.344 1.382 0 2.659.263 3.816.774a8.973 8.973 0 0 1 3.02 2.148c.856.917 1.517 2 1.983 3.26.48 1.255.72 2.623.72 4.11 0 1.48-.24 2.854-.72 4.109a9.998 9.998 0 0 1-1.953 3.26 8.958 8.958 0 0 1-3.02 2.141c-1.187.519-2.464.773-3.846.773-1.338 0-2.57-.24-3.65-.728a6.788 6.788 0 0 1-2.66-2.126V41.4h-4.928V15.997h5.363v7.644zM71.035 41.4H76.4V15.997h-5.364zM88.259 37.944c1.172 0 2.163-.36 2.96-1.074.811-.714 1.217-1.653 1.217-2.817v-.24h-4.208c-1.833 0-2.749.66-2.749 1.983 0 .69.27 1.224.782 1.592.51.368 1.186.556 1.998.556m1.08-16.646c1.249 0 2.39.18 3.412.54a7.183 7.183 0 0 1 2.66 1.585c.75.706 1.321 1.578 1.727 2.622.42 1.044.616 2.269.616 3.673V41.4h-4.883v-1.908c-.69.743-1.532 1.322-2.554 1.75-1.022.42-2.178.63-3.486.63-1.05 0-2.013-.15-2.854-.45-.841-.308-1.563-.721-2.149-1.232a5.043 5.043 0 0 1-1.322-1.848c-.315-.714-.465-1.495-.465-2.344 0-1.802.676-3.207 2.013-4.214 1.337-1.006 3.155-1.51 5.454-1.51h4.928v-.871c0-1.09-.302-1.93-.917-2.539-.601-.608-1.533-.917-2.78-.917-1.036 0-1.953.241-2.764.714-.797.48-1.622 1.142-2.434 1.99l-2.75-3.297c2.224-2.704 5.079-4.056 8.549-4.056M129.152 25.632c-1.156 0-2.163.345-3.02 1.052-.84.698-1.427 1.675-1.742 2.914h9.014c-.045-1.27-.48-2.246-1.307-2.937-.826-.691-1.803-1.029-2.945-1.029m.21-4.334c1.368 0 2.63.24 3.771.713 1.143.48 2.104 1.127 2.916 1.953a8.432 8.432 0 0 1 1.862 2.9 9.677 9.677 0 0 1 .661 3.568c0 .563-.045 1.104-.12 1.63-.075.533-.165.97-.24 1.315H124.39c.345 1.269 1.006 2.238 1.983 2.9.976.66 2.193.99 3.62.99 1.052 0 2.029-.18 2.915-.533.886-.36 1.743-.84 2.57-1.449l2.178 3.65a13.087 13.087 0 0 1-3.606 2.164c-1.307.518-2.704.774-4.222.774-1.562 0-3.004-.263-4.326-.79-1.322-.532-2.464-1.261-3.41-2.185a10.047 10.047 0 0 1-2.254-3.26c-.541-1.24-.812-2.592-.812-4.049 0-1.458.27-2.81.797-4.056A10.328 10.328 0 0 1 122 24.28c.931-.932 2.028-1.653 3.29-2.186 1.247-.526 2.614-.796 4.072-.796M116.644 21.752h-15.599v4.53h8.501l-8.5 11.432v3.704h15.583v-4.53h-9.081l9.096-11.9z"/>
    </g>
</svg>
